<svg width="100%" height="100%" viewBox="0 0 1920 1080" xmlns="http://www.w3.org/2000/svg" preserveAspectRatio="xMidYMid slice">
  <defs>
    <linearGradient id="bgGradient" x1="0%" y1="0%" x2="100%" y2="0%">
      <stop offset="0%" stop-color="#0d47a1"/>
      <stop offset="100%" stop-color="#2196f3"/>
    </linearGradient>
    <filter id="glow">
      <feGaussianBlur stdDeviation="1.5" result="coloredBlur"/>
      <feMerge>
        <feMergeNode in="coloredBlur"/>
        <feMergeNode in="SourceGraphic"/>
      </feMerge>
    </filter>
    <pattern id="hexPattern" width="120" height="104" patternUnits="userSpaceOnUse"
             patternTransform="scale(1)">
      <path d="M60,0 L120,30 L120,90 L60,120 L0,90 L0,30 Z" fill="none" stroke="#ffffff22" stroke-width="1"/>
    </pattern>
  </defs>

  <!-- Fondo degradado -->
  <rect width="100%" height="100%" fill="url(#bgGradient)" />

  <!-- Hexágonos -->
  <rect width="100%" height="100%" fill="url(#hexPattern)" />

  <!-- Líneas modernas -->
  <g stroke="#4fc3f7cc" stroke-width="1.2" fill="none" filter="url(#glow)">
    <path d="M100 200 H300 L350 250 H500" />
    <path d="M100 400 H400 L450 450 H700" />
    <path d="M200 600 H500 L550 650 H800" />
    <path d="M100 800 H300 L350 750 H600" />
    <path d="M800 200 H1000 L1050 250 H1300" />
    <path d="M900 400 H1200 L1250 450 H1500" />
    <path d="M1000 600 H1300 L1350 650 H1600" />
    <path d="M1100 800 H1400 L1450 750 H1700" />
  </g>

  <!-- Círculos suaves -->
  <g fill="#81d4fa88">
    <circle cx="500" cy="200" r="4" />
    <circle cx="700" cy="400" r="4" />
    <circle cx="800" cy="600" r="4" />
    <circle cx="600" cy="800" r="4" />
    <circle cx="1500" cy="250" r="3" />
    <circle cx="1700" cy="650" r="3" />
  </g>

  <!-- Sutiles detalles borrosos -->
  <g filter="url(#glow)">
    <line x1="300" y1="100" x2="600" y2="100" stroke="#29b6f6" stroke-opacity="0.1" stroke-width="10"/>
    <line x1="1600" y1="100" x2="1800" y2="150" stroke="#29b6f6" stroke-opacity="0.08" stroke-width="8"/>
  </g>
</svg>
