<?xml version="1.0" encoding="UTF-8"?>
<svg id="Capa_1" data-name="Capa 1" xmlns="http://www.w3.org/2000/svg" viewBox="0 0 200 48">
  <defs>
    <style>
      .cls-1 {
        fill: #fff;
        stroke-width: 0px;
      }
    </style>
  </defs>
  <polygon class="cls-1" points="75.99 43.14 92.15 43.14 92.15 39.74 80.23 39.74 80.23 32.06 90.76 32.06 90.76 28.74 80.23 28.74 80.23 22.4 92.15 22.4 92.15 19 75.99 19 75.99 43.14"/>
  <path class="cls-1" d="m105.06,32.75c-1-.3-1.99-.55-2.97-.74-.99-.19-1.82-.46-2.51-.82-.69-.36-1.03-.87-1.03-1.53,0-.74.34-1.29,1.03-1.66.69-.37,1.54-.55,2.56-.55,1.9,0,3.62.45,5.16,1.34l.61-3.32c-1.85-.89-3.88-1.34-6.09-1.34s-4.09.46-5.43,1.39c-1.34.93-2.01,2.36-2.01,4.3,0,1.32.34,2.39,1.03,3.21.69.81,1.52,1.37,2.51,1.66.98.29,1.97.54,2.95.74.98.2,1.82.48,2.51.84.69.36,1.03.88,1.03,1.57,0,1.55-1.38,2.33-4.13,2.33-2.14,0-4.02-.41-5.66-1.22l-.57,3.25c1.9.87,4.13,1.3,6.69,1.3,5.24,0,7.86-1.92,7.86-5.77,0-1.35-.34-2.44-1.03-3.27-.69-.83-1.53-1.39-2.53-1.7Z"/>
  <path class="cls-1" d="m122.85,30.27c-1.19-.48-2.37-.92-3.54-1.3-1.17-.38-2.18-.88-3.01-1.49-.83-.61-1.24-1.37-1.24-2.29,0-1.02.43-1.78,1.28-2.29.85-.51,1.93-.76,3.24-.76,2.4,0,4.46.53,6.19,1.6l.6-3.32c-1.99-1.2-4.43-1.8-7.29-1.8-2.37,0-4.36.57-5.96,1.72-1.6,1.15-2.4,2.88-2.4,5.19,0,1.58.41,2.89,1.25,3.93.83,1.04,1.84,1.81,3.02,2.31,1.19.5,2.37.94,3.54,1.34,1.17.4,2.18.88,3.01,1.45.83.57,1.25,1.29,1.25,2.16,0,1.09-.49,1.92-1.48,2.48-.99.56-2.24.84-3.75.84-2.61,0-4.83-.55-6.65-1.64l-.57,3.32c2.04,1.2,4.57,1.8,7.58,1.8,1.66,0,3.16-.23,4.5-.69s2.46-1.25,3.36-2.37c.9-1.12,1.35-2.49,1.35-4.12,0-1.53-.42-2.8-1.25-3.82-.83-1.02-1.84-1.77-3.02-2.25Z"/>
  <path class="cls-1" d="m135.7,24.08c-2.21,0-4.53.41-6.97,1.22l.57,3.29c2.16-.79,4.25-1.18,6.26-1.18,1.33,0,2.34.27,3.04.82.7.55,1.05,1.48,1.05,2.81v1.07h-3.88c-2.7,0-4.71.45-6.01,1.34-1.3.89-1.96,2.38-1.96,4.47s.72,3.49,2.15,4.37c1.43.88,3.47,1.32,6.1,1.32,2.78,0,5.35-.4,7.72-1.18v-11.38c0-4.63-2.69-6.95-8.08-6.95Zm3.95,16.2c-.93.33-2.04.5-3.35.5s-2.4-.26-3.15-.78c-.75-.52-1.12-1.28-1.12-2.27,0-2.09,1.52-3.13,4.55-3.13h3.06v5.69Z"/>
  <path class="cls-1" d="m152,40.12c-.64,0-1.12-.24-1.42-.71-.31-.47-.46-1.33-.46-2.58v-19.67h-4.13v20.05c0,4.15,1.62,6.23,4.87,6.23,1.26,0,2.35-.17,3.27-.5l-.57-3.17c-.52.23-1.04.34-1.57.34Z"/>
  <path class="cls-1" d="m167.01,39.51c-1.04.54-2.4.8-4.06.8-1.38,0-2.47-.31-3.27-.94-.81-.62-1.21-1.84-1.21-3.65v-11.15h-4.13v11.34c0,1.43.23,2.65.69,3.69.46,1.03,1.1,1.83,1.92,2.39.82.56,1.71.97,2.69,1.22.97.25,2.06.38,3.27.38,3.51,0,6.25-.5,8.22-1.49v-17.53h-4.13v14.93Z"/>
  <path class="cls-1" d="m185.87,17.16v7.64c-1.02-.43-2.25-.65-3.7-.65-2.73,0-4.93.8-6.62,2.39-1.69,1.59-2.53,4.02-2.53,7.28s.9,5.86,2.7,7.43c1.8,1.57,4.26,2.35,7.37,2.35,2.47,0,4.77-.4,6.9-1.18v-25.25h-4.13Zm0,22.61c-.81.36-1.77.53-2.88.53-1.66,0-3.03-.48-4.11-1.45-1.08-.97-1.62-2.6-1.62-4.89s.55-3.95,1.66-4.97c1.1-1.02,2.45-1.53,4.04-1.53,1.09,0,2.06.22,2.92.65v11.65Z"/>
  <g>
    <path class="cls-1" d="m56.67,41.28l4.37-9.11,7.76,6.88,1.69-1.11-7.69-11.46,6.74-3.37-.6-1.43s-5.6,1.37-7.31,1.76c.88-.62,1-2.19,1-2.22,0-.46-.11-.88-.3-1.27-.02-.05-.05-.1-.07-.14-.04-.07-.07-.13-.11-.19-.08-.13-.17-.24-.26-.36-.01-.01-.02-.03-.03-.04-.04-.04-.07-.08-.11-.13-.05-.05-.1-.1-.15-.15-.27-.27-.6-.48-.99-.63-.01,0-.03,0-.04-.02-.04-.01-.09-.02-.13-.04-.2-.07-.41-.12-.63-.15-.06,0-.13-.02-.19-.02-.04,0-.08,0-.12,0-.06,0-.12-.01-.18-.01-.04,0-.08,0-.12,0-.1,0-.21.01-.31.03,0,0-.02,0-.02,0-.1.01-.2.03-.3.05-.95.21-1.7.79-2.14,1.55-.01.02-.03.04-.04.06-.07.12-.12.25-.17.38-.02.05-.03.1-.05.14-.03.1-.06.21-.09.32-.01.07-.03.14-.04.21-.01.09-.02.19-.02.28,0,.04,0,.08,0,.13,0,.02.04.48.09.71.28,1.14,1.17,1.99,2.27,2.3l-8.03,4.61c-1.72-1.32-3.76-2.91-5.56-4.3.7-.3,1.26-.84,1.58-1.51.9,2.03,3.39.94,3.39.94-.68-2.17-2.31-2.04-3.13-1.81.02-.12.03-.25.03-.38,0-1.67-1.42-3.03-3.17-3.03-1.2,0-2.25.64-2.79,1.59-1.24-1.95-3.55-.43-3.55-.43.98,1.86,2.4,1.67,3.22,1.35-.03.17-.05.34-.05.52,0,.4.08.77.23,1.12l-1.15-.36.04.02s0,.01-.04-.02l-6.27-2.98-.89,1.67,7.41,4.59-7.42,5.81h0s-.09.08-.09.08l2.56,1.04-4.35,7.48,1.86.4,5.5-6.62,3.57,1.42.86,5.86h-11.57l-.04-.09-1.7-.29,1.46-2.44-2.25-6.52,2.58-.28-4.15-14.45,5.01,3.59.99-1.8s-7.23-7.28-7.57-7.6c.65.63,2.59-.49,3.29-1.44-1.18-.2-1.5-.63-1.63-1.19-.32-1.18.22-4.01-3.5-4.35-3.72.34-3.18,3.17-3.5,4.35-.13.56-.45.99-1.64,1.19.69.93,1.96,1.27,2.82,1.59l-10.75,7.78.95,1.48,7.95-3.6-6.1,16.18,3.24-.27-2.81,8.17h-1.07v1.86h60.71v-1.86h-16.2Zm-40.92,0l4.15-8.59,4.66-.31,4.14,8.9h-12.96Zm28.44,0l.33-4.55,1.99.81-2.43-10.1,6.26,3.35,6.98-2.68-2.87,13.17h-10.26Z"/>
    <polygon class="cls-1" points="40.11 41.28 41.15 41.28 40.77 38.7 40.11 41.28"/>
    <path class="cls-1" d="m36.02,19.88l-.15-.28.71-.47c.11-.08,1.15-.74,2.37-.74.41,0,1,.08,1.58.44l.38-.17c.49-.37,1.07-.64,1.7-.77l1.46-.66v.61c1.77.24,3.19,1.56,3.5,3.24.92.03,2.44.42,3.13,2.61l.25.79-.79.35c-.09.04-.9.38-1.85.38-.58,0-1.09-.12-1.54-.36.32.25.65.5.98.76.91.71,1.82,1.41,2.67,2.07l2.56-1.47-.85-8.74,3.3,2.02c.03-.05.05-.11.08-.16.02-.04.04-.07.06-.11.46-.79,1.17-1.4,2.02-1.75l-7.57-6.01c1.35-.57,2.29-1.86,2.29-3.37,0-2.04-1.73-3.69-3.86-3.69s-3.86,1.65-3.86,3.69c0,1.42.85,2.66,2.08,3.27l-12.11,7.82,1.46.69Z"/>
    <polygon class="cls-1" points="53.99 30.41 50.71 31.67 50.27 31.84 49.92 31.64 52.4 41.28 53.44 41.28 54.98 34.23 53.99 30.41"/>
    <polygon class="cls-1" points="46.54 33.39 47.34 30.27 45.56 29.31 46.54 33.39"/>
  </g>
</svg>